<svg width="16" height="4" viewBox="0 0 16 4" fill="none" xmlns="http://www.w3.org/2000/svg">
<g id="Group">
<path id="Vector" d="M1.75 3.75C2.7165 3.75 3.5 2.9665 3.5 2C3.5 1.0335 2.7165 0.25 1.75 0.25C0.783502 0.25 0 1.0335 0 2C0 2.9665 0.783502 3.75 1.75 3.75Z" fill="#BCBCBC"/>
<path id="Vector_2" d="M7.75 3.75C8.7165 3.75 9.5 2.9665 9.5 2C9.5 1.0335 8.7165 0.25 7.75 0.25C6.7835 0.25 6 1.0335 6 2C6 2.9665 6.7835 3.75 7.75 3.75Z" fill="#BCBCBC"/>
<path id="Vector_3" d="M13.75 3.75C14.7165 3.75 15.5 2.9665 15.5 2C15.5 1.0335 14.7165 0.25 13.75 0.25C12.7835 0.25 12 1.0335 12 2C12 2.9665 12.7835 3.75 13.75 3.75Z" fill="#BCBCBC"/>
</g>
</svg>
