<svg width="32" height="32" viewBox="0 0 32 32" fill="none" xmlns="http://www.w3.org/2000/svg">
<rect width="32" height="32" rx="16" fill="#17171B"/>
<path d="M22.3333 23.5L17.0833 18.25C16.6667 18.5833 16.1875 18.8472 15.6458 19.0417C15.1042 19.2361 14.5278 19.3333 13.9167 19.3333C12.4028 19.3333 11.1217 18.8089 10.0733 17.76C9.025 16.7111 8.50056 15.43 8.5 13.9167C8.49944 12.4033 9.02389 11.1222 10.0733 10.0733C11.1228 9.02444 12.4039 8.5 13.9167 8.5C15.4294 8.5 16.7108 9.02444 17.7608 10.0733C18.8108 11.1222 19.335 12.4033 19.3333 13.9167C19.3333 14.5278 19.2361 15.1042 19.0417 15.6458C18.8472 16.1875 18.5833 16.6667 18.25 17.0833L23.5 22.3333L22.3333 23.5ZM13.9167 17.6667C14.9583 17.6667 15.8439 17.3022 16.5733 16.5733C17.3028 15.8444 17.6672 14.9589 17.6667 13.9167C17.6661 12.8744 17.3017 11.9892 16.5733 11.2608C15.845 10.5325 14.9594 10.1678 13.9167 10.1667C12.8739 10.1656 11.9886 10.5303 11.2608 11.2608C10.5331 11.9914 10.1683 12.8767 10.1667 13.9167C10.165 14.9567 10.5297 15.8422 11.2608 16.5733C11.9919 17.3044 12.8772 17.6689 13.9167 17.6667Z" fill="#F6F6F6"/>
</svg>
