<svg width="30" height="30" viewBox="0 0 30 30" fill="none" xmlns="http://www.w3.org/2000/svg">
<g id="mynaui:x-solid">
<path id="Vector" d="M8.38373 6.61627C8.14798 6.38857 7.83222 6.26258 7.50448 6.26543C7.17673 6.26828 6.86322 6.39974 6.63146 6.6315C6.3997 6.86326 6.26823 7.17677 6.26539 7.50452C6.26254 7.83227 6.38853 8.14802 6.61623 8.38377L13.2325 15L6.61623 21.6163C6.49684 21.7316 6.40161 21.8695 6.3361 22.022C6.27059 22.1745 6.23611 22.3385 6.23467 22.5045C6.23322 22.6705 6.26485 22.8351 6.3277 22.9887C6.39055 23.1423 6.48337 23.2819 6.60074 23.3993C6.7181 23.5166 6.85767 23.6094 7.01129 23.6723C7.16491 23.7351 7.32951 23.7668 7.49548 23.7653C7.66146 23.7639 7.82548 23.7294 7.97798 23.6639C8.13049 23.5984 8.26842 23.5032 8.38373 23.3838L15 16.7675L21.6162 23.3838C21.852 23.6115 22.1677 23.7375 22.4955 23.7346C22.8232 23.7318 23.1367 23.6003 23.3685 23.3685C23.6003 23.1368 23.7317 22.8233 23.7346 22.4955C23.7374 22.1678 23.6114 21.852 23.3837 21.6163L16.7675 15L23.3837 8.38377C23.6114 8.14802 23.7374 7.83227 23.7346 7.50452C23.7317 7.17677 23.6003 6.86326 23.3685 6.6315C23.1367 6.39974 22.8232 6.26828 22.4955 6.26543C22.1677 6.26258 21.852 6.38857 21.6162 6.61627L15 13.2325L8.38373 6.61627Z" fill="#17171B"/>
</g>
</svg>
