<svg width="12" height="14" viewBox="0 0 12 14" fill="none" xmlns="http://www.w3.org/2000/svg">
<path d="M3.85964 3.64036C3.76534 3.54928 3.63904 3.49888 3.50794 3.50002C3.37685 3.50116 3.25144 3.55374 3.15873 3.64645C3.06603 3.73915 3.01345 3.86456 3.01231 3.99566C3.01117 4.12675 3.06157 4.25305 3.15264 4.34736L5.79914 6.99386L3.15264 9.64036C3.10489 9.68648 3.0668 9.74165 3.04059 9.80265C3.01439 9.86366 3.0006 9.92927 3.00002 9.99566C2.99944 10.062 3.01209 10.1279 3.03723 10.1893C3.06237 10.2508 3.0995 10.3066 3.14645 10.3536C3.19339 10.4005 3.24922 10.4376 3.31067 10.4628C3.37212 10.4879 3.43796 10.5006 3.50434 10.5C3.57073 10.4994 3.63634 10.4856 3.69735 10.4594C3.75835 10.4332 3.81352 10.3951 3.85964 10.3474L6.50614 7.70086L9.15264 10.3474C9.24694 10.4384 9.37325 10.4888 9.50434 10.4877C9.63544 10.4866 9.76085 10.434 9.85355 10.3413C9.94626 10.2486 9.99884 10.1232 9.99998 9.99206C10.0011 9.86096 9.95072 9.73466 9.85964 9.64036L7.21314 6.99386L9.85964 4.34736C9.95072 4.25305 10.0011 4.12675 9.99998 3.99566C9.99884 3.86456 9.94626 3.73915 9.85355 3.64645C9.76085 3.55374 9.63544 3.50116 9.50434 3.50002C9.37325 3.49888 9.24694 3.54928 9.15264 3.64036L6.50614 6.28686L3.85964 3.64036Z" fill="#17171B"/>
</svg>
