<svg width="12" height="13" viewBox="0 0 12 13" fill="none" xmlns="http://www.w3.org/2000/svg">
<g clip-path="url(#clip0_172_4967)">
<path d="M3.99998 1.5L3.64648 1.1465L3.99998 0.792999L4.35348 1.1465L3.99998 1.5ZM4.49998 9C4.49998 9.13261 4.44731 9.25978 4.35354 9.35355C4.25977 9.44732 4.13259 9.5 3.99998 9.5C3.86738 9.5 3.7402 9.44732 3.64643 9.35355C3.55266 9.25978 3.49998 9.13261 3.49998 9H4.49998ZM1.14648 3.6465L3.64648 1.1465L4.35348 1.8535L1.85348 4.3535L1.14648 3.6465ZM4.35348 1.1465L6.85348 3.6465L6.14648 4.3535L3.64648 1.8535L4.35348 1.1465ZM4.49998 1.5V9H3.49998V1.5H4.49998ZM7.99998 11.5L7.64648 11.8535L7.99998 12.207L8.35348 11.8535L7.99998 11.5ZM8.49998 4C8.49998 3.86739 8.44731 3.74021 8.35354 3.64645C8.25977 3.55268 8.13259 3.5 7.99998 3.5C7.86738 3.5 7.7402 3.55268 7.64643 3.64645C7.55266 3.74021 7.49998 3.86739 7.49998 4H8.49998ZM5.14648 9.3535L7.64648 11.8535L8.35348 11.1465L5.85348 8.6465L5.14648 9.3535ZM8.35348 11.8535L10.8535 9.3535L10.1465 8.6465L7.64648 11.1465L8.35348 11.8535ZM8.49998 11.5V4H7.49998V11.5H8.49998Z" fill="#17171B"/>
</g>
<defs>
<clipPath id="clip0_172_4967">
<rect width="12" height="12" fill="white" transform="translate(0 0.5)"/>
</clipPath>
</defs>
</svg>
