<svg width="18" height="18" viewBox="0 0 18 18" fill="none" xmlns="http://www.w3.org/2000/svg">
<rect width="18" height="18" rx="9" fill="#DFDFDF"/>
<path d="M8.50198 9.425C8.91448 8.73 9.70734 8.32 10.1681 7.705C10.6556 7.06 10.3823 5.855 9.0002 5.855C8.09484 5.855 7.6502 6.495 7.4627 7.025L6.0752 6.48C6.45555 5.415 7.48948 4.5 8.99484 4.5C10.2538 4.5 11.1163 5.035 11.5556 5.705C11.9306 6.28 12.1502 7.355 11.5716 8.155C10.9288 9.04 10.3127 9.31 9.98055 9.88C9.84662 10.11 9.79305 10.26 9.79305 11H8.24484C8.23948 10.61 8.17519 9.975 8.50198 9.425ZM10.0716 13C10.0716 13.55 9.58948 14 9.0002 14C8.41091 14 7.92877 13.55 7.92877 13C7.92877 12.45 8.41091 12 9.0002 12C9.58948 12 10.0716 12.45 10.0716 13Z" fill="#17171B"/>
</svg>
